<?xml version="1.0" encoding="UTF-8" standalone="no"?>
<!-- Created with Inkscape (http://www.inkscape.org/) -->

<svg
   version="1.1"
   id="svg9"
   width="854.49335"
   height="854.47998"
   viewBox="0 0 854.49335 854.47998"
   xmlns="http://www.w3.org/2000/svg"
   xmlns:svg="http://www.w3.org/2000/svg">
  <defs
     id="defs13" />
  <g
     id="g17"
     transform="matrix(1.3333333,0,0,-1.3333333,0,854.48)">
    <circle
       style="fill:#a34223;fill-opacity:1;stroke-width:0.745625"
       id="path902"
       cx="320.25"
       cy="-319.86002"
       transform="scale(1,-1)"
       r="319.5" />
    <path
       d="m 484.42501,425.10884 c -5.43336,16.79194 -20.98902,17.40554 -20.98902,17.40554 -0.0206,-13.18933 -12.67741,-28.87923 -27.16554,-30.30204 0,0 -5.36193,42.27511 6.23462,62.58096 15.68638,27.46855 28.92541,52.64917 22.11345,102.18662 -3.65652,26.58278 -12.30212,36.27174 -12.30212,36.27174 l -8.47639,3.84479 -16.67055,6.42165 -12.09008,3.13782 c 0,0 -5.49085,-2.13273 -4.45226,-12.29482 -0.76578,-21.55627 21.96743,-10.73644 23.96576,-54.86692 1.83251,-40.47441 -14.71567,-55.14853 -28.34686,-52.63945 -14.80524,2.72655 -33.38805,14.39586 -53.52135,9.55755 -14.77133,-3.55036 -11.72483,-19.58169 -11.72483,-19.58169 0,0 37.0131,-5.36199 52.39327,-30.60822 9.35132,-15.26585 9.28474,-103.63738 9.66722,-152.78965 v -25.47346 c 0,-20.30827 0.25055,-43.65539 0.75407,-70.0632 0.50834,-26.39701 1.26723,-45.68441 2.27911,-57.87388 -26.29648,50.77424 -55.29937,102.54991 -86.98563,155.3534 -31.69062,52.79497 -55.96423,88.83568 -72.82092,108.13426 -4.38383,5.06918 -8.51665,8.79208 -12.38837,11.15899 -3.88117,2.36569 -9.19216,3.55401 -15.9338,3.55401 -9.43955,0 -17.36461,-1.35599 -23.76584,-4.05947 6.40123,-20.64486 9.60682,-59.22987 9.60682,-115.74775 V 216.88636 c 0,-11.85144 -0.17257,-28.42735 -0.50257,-49.75469 -0.3409,-21.3169 -0.50827,-34.69481 -0.50827,-40.1003 0,-10.49544 1.68176,-17.94138 5.05941,-22.33742 3.3635,-4.40597 9.93786,-6.60491 19.72201,-6.60491 6.40115,0 12.63976,1.35696 18.71061,4.05948 -6.41121,21.32739 -9.60682,54.83472 -9.60682,100.51949 0,105.25204 0.16303,164.31423 0.50303,177.17549 24.2736,-36.54616 53.43491,-85.03258 87.48757,-145.44104 34.0489,-60.41817 57.98639,-101.28115 71.81002,-122.5995 6.07121,-9.13946 14.83551,-13.71392 26.30134,-13.71392 5.72504,0 11.2879,0.68393 16.68736,2.02998 -2.36143,30.79285 -3.54033,70.06217 -3.54033,117.77704 v 86.81627 c 0,15.56474 0.33042,32.06021 1.01065,49.49734 0.0484,1.24785 0.0956,2.40822 0.14404,3.62692 0.15371,11.38133 15.35355,20.76392 22.98251,25.18547 19.52446,11.31574 29.89732,24.96799 24.35868,42.08678"
       style="fill:#ffffff;fill-opacity:1;fill-rule:nonzero;stroke:none;stroke-width:0.121271"
       id="path691" />
  </g>
</svg>
