<?xml version="1.0" encoding="UTF-8" standalone="no"?>
<svg
   version="1.1"
   width="494.51001"
   height="149.89"
   viewBox="0 0 494.51002 149.89"
   xml:space="preserve"
   id="svg7"
   sodipodi:docname="kieker-logo.svg"
   inkscape:version="1.1.2 (0a00cf5339, 2022-02-04)"
   xmlns:inkscape="http://www.inkscape.org/namespaces/inkscape"
   xmlns:sodipodi="http://sodipodi.sourceforge.net/DTD/sodipodi-0.dtd"
   xmlns="http://www.w3.org/2000/svg"
   xmlns:svg="http://www.w3.org/2000/svg"
   xmlns:rdf="http://www.w3.org/1999/02/22-rdf-syntax-ns#"
   xmlns:cc="http://creativecommons.org/ns#"
   xmlns:dc="http://purl.org/dc/elements/1.1/"><defs
   id="defs11" /><sodipodi:namedview
   id="namedview9"
   pagecolor="#ffffff"
   bordercolor="#666666"
   borderopacity="1.0"
   inkscape:pageshadow="2"
   inkscape:pageopacity="0.0"
   inkscape:pagecheckerboard="0"
   showgrid="false"
   inkscape:zoom="2.7057086"
   inkscape:cx="371.99127"
   inkscape:cy="74.841762"
   inkscape:window-width="1846"
   inkscape:window-height="1016"
   inkscape:window-x="74"
   inkscape:window-y="27"
   inkscape:window-maximized="1"
   inkscape:current-layer="svg7" />
 <metadata
   id="metadata16">
  <rdf:RDF>
    <cc:Work
   rdf:about="">
      <dc:format>image/svg+xml</dc:format>
      <dc:type
   rdf:resource="http://purl.org/dc/dcmitype/StillImage" />
      
    </cc:Work>
  </rdf:RDF>
</metadata>

 <path
   d="m 266.78125,0 -2.46875,0.59375 -18.90625,4.5625 -1.53125,0.375 0,1.5625 0,111.09375 0,2 2,0 18.90625,0 2,0 0,-2 0,-26.25 6.78125,-7.15625 22.40625,34.5 0.59375,0.90625 1.09375,0 22.4375,0 3.6875,0 -2,-3.09375 L 289.6875,68.125 316,38.59375 318.96875,35.25 l -4.46875,0 -22.75,0 -0.90625,0 -0.59375,0.6875 -23.46875,27 0,-60.40625 0,-2.53125 z M 76.5625,3.09375 44.5,46.96875 l 0,-39.5 0,-2 -2,0 -19.65625,0 -2,0 0,2 0,48.15625 c 1.181255,-1.362122 2.528767,-2.576689 4,-3.625 l 0,-42.53125 15.65625,0 0,38.5 c 1.367597,0.151748 2.708068,0.430105 4,0.8125 l 0,-0.03125 c 0.08596,0.02537 0.164435,0.06741 0.25,0.09375 0.358942,0.110565 0.710777,0.216427 1.0625,0.34375 0.19867,0.07191 0.397551,0.141596 0.59375,0.21875 0.149108,0.05867 0.289847,0.125858 0.4375,0.1875 0.128682,0.05368 0.247466,0.131578 0.375,0.1875 0.214864,0.09421 0.44471,0.180801 0.65625,0.28125 0.324267,0.154192 0.652764,0.300194 0.96875,0.46875 0.339517,0.1807 0.670512,0.365806 1,0.5625 0.05199,0.0311 0.104519,0.06226 0.15625,0.09375 0.264125,0.160463 0.524039,0.329523 0.78125,0.5 0.294686,0.195845 0.589866,0.385105 0.875,0.59375 0.309522,0.225894 0.608502,0.478346 0.90625,0.71875 0.217235,0.175879 0.445564,0.347872 0.65625,0.53125 0.344022,0.298685 0.674228,0.619609 1,0.9375 0.147032,0.143828 0.294327,0.289888 0.4375,0.4375 0.365739,0.376614 0.723101,0.755928 1.0625,1.15625 0.08669,0.102377 0.165084,0.208635 0.25,0.3125 0.149036,0.181997 0.294057,0.376013 0.4375,0.5625 0.221694,0.288722 0.448246,0.57596 0.65625,0.875 0.03446,0.04954 0.05968,0.106436 0.09375,0.15625 L 90.03125,12.9375 76.5625,3.09375 z M 125.28125,3.875 c -3.50429,0 -6.68677,1.3418619 -9.15625,3.8125 -2.47208,2.473237 -3.8125,5.656209 -3.8125,9.15625 0,3.49667 1.34473,6.65954 3.8125,9.125 2.46999,2.473456 5.65284,3.8125 9.15625,3.8125 3.49414,0 6.68206,-1.338313 9.15625,-3.8125 2.47677,-2.466383 3.8125,-5.630978 3.8125,-9.125 0,-3.497837 -1.33338,-6.68175 -3.8125,-9.15625 -2.47368,-2.4713685 -5.66122,-3.8125 -9.15625,-3.8125 z m 137.5,1.1875 0,63.21875 0,5.34375 3.5,-4.03125 26.375,-30.34375 17.375,0 -24.375,27.34375 -1,1.15625 0.8125,1.28125 30.90625,47.15625 -17.625,0 -23.21875,-35.75 -1.40625,-2.125 -1.75,1.84375 -9.0625,9.59375 -0.53125,0.59375 0,0.78125 0,25.0625 -14.90625,0 0,-107.53125 14.90625,-3.59375 z m -137.5,2.8125 c 2.54097,0 4.53543,0.8183686 6.34375,2.625 1.81288,1.8095 2.625,3.791587 2.625,6.34375 0,2.547978 -0.80777,4.502883 -2.625,6.3125 -1.80781,1.807813 -3.80189,2.625 -6.34375,2.625 -2.55459,0 -4.53774,-0.816456 -6.34375,-2.625 -1.81423,-1.81254 -2.625,-3.76717 -2.625,-6.3125 0,-2.549959 0.81508,-4.532987 2.625,-6.34375 1.80652,-1.8073618 3.79004,-2.625 6.34375,-2.625 z m 66.4375,25.84375 c -11.51097,0 -21.5666,4.227015 -29.78125,12.46875 -8.26765,8.290709 -12.40625,19.220402 -12.40625,32.375 0,13.318848 3.74446,24.03209 11.34375,31.6875 7.58516,7.64114 17.97383,11.46875 30.71875,11.46875 13.46966,0 23.85065,-2.7294 31,-8.53125 l 1.25,-1.03125 -0.71875,-1.4375 -7.3125,-14.4375 -1.25,-2.46875 -1.9375,1.96875 c -4.03078,4.031678 -9.97848,6.125 -18.25,6.125 -6.55715,0 -11.49488,-1.66322 -15.15625,-4.875 -3.20684,-2.811184 -5.03851,-6.5894 -5.6875,-11.53125 l 55.53125,0 1.59375,0 L 231,83.9375 c 1.06774,-4.745518 1.65625,-8.310187 1.65625,-10.9375 0,-11.268885 -3.77445,-20.847335 -11.25,-28.21875 -7.497,-7.394621 -17.55165,-11.0625 -29.6875,-11.0625 z m 174.1875,0 c -11.51193,0 -21.56577,4.227227 -29.78125,12.46875 -8.26654,8.290643 -12.40625,19.220297 -12.40625,32.375 0,13.318951 3.74559,24.03216 11.34375,31.6875 7.58691,7.64077 17.97383,11.46875 30.71875,11.46875 13.47162,0 23.85081,-2.72952 31,-8.53125 l 1.25,-1.03125 -0.71875,-1.4375 -7.3125,-14.4375 -1.25,-2.46875 -1.9375,1.96875 c -4.03199,4.031988 -9.97848,6.125 -18.25,6.125 -6.55715,0 -11.48986,-1.66197 -15.15625,-4.875 -3.20626,-2.811366 -5.03883,-6.589745 -5.6875,-11.53125 l 55.53125,0 1.59375,0 0.34375,-1.5625 c 1.06768,-4.745253 1.65739,-8.308741 1.65625,-10.9375 0,-11.268885 -3.77445,-20.847335 -11.25,-28.21875 -7.4962,-7.394869 -17.55261,-11.0625 -29.6875,-11.0625 z m 94.15625,0 c -7.47495,0 -13.89468,2.242865 -19.09375,6.4375 l 0,-2.90625 0,-2 -2,0 -18.90625,0 -2,0 0,2 0,80.9375 0,2 2,0 18.90625,0 2,0 0,-2 0,-46.09375 c 0,-5.352369 1.53366,-9.664688 4.625,-13.28125 3.12409,-3.653193 6.37915,-5.28125 10.15625,-5.28125 3.66679,0 6.92378,0.981944 10,3 l 1.875,1.21875 1,-2.03125 8.03125,-16.1875 0.84375,-1.6875 -1.625,-0.9375 c -3.90036,-2.230399 -9.16375,-3.1875 -15.8125,-3.1875 z M 103.15625,35.25 l 0,2 0,15.46875 0,2 2,0 8.375,0 0,63.46875 0,2 2,0 19.125,0 2,0 0,-2 0,-80.9375 0,-2 -2,0 -29.5,0 -2,0 z m 88.5625,2.46875 c 11.34215,0 20.166,3.320121 26.875,9.9375 6.73845,6.644585 10.0625,14.948635 10.0625,25.34375 0,1.693038 -0.54347,4.916211 -1.28125,8.5 l -56.125,0 -2.125,0 0.125,2.09375 c 0.37282,6.850935 2.8349,12.484945 7.34375,16.4375 4.49863,3.94623 10.5304,5.875 17.78125,5.875 7.81385,0 14.17051,-1.9217 18.96875,-5.65625 l 5.40625,10.65625 c -6.14623,4.38945 -15.05778,6.8125 -27.15625,6.8125 -11.95908,0 -21.12741,-3.45239 -27.90625,-10.28125 -6.75471,-6.80459 -10.15625,-16.291848 -10.15625,-28.875 0,-12.333402 3.7104,-22.033209 11.21875,-29.5625 7.55735,-7.582265 16.41572,-11.28125 26.96875,-11.28125 z m 174.1875,0 c 11.34111,0 20.1672,3.320369 26.875,9.9375 6.73845,6.644585 10.0625,14.948635 10.0625,25.34375 7.3e-4,1.691816 -0.54327,4.91601 -1.28125,8.5 l -56.125,0 -2.125,0 0.125,2.09375 c 0.37179,6.851516 2.83624,12.485153 7.34375,16.4375 4.50161,3.94498 10.5304,5.875 17.78125,5.875 7.81385,0 14.17017,-1.92187 18.96875,-5.65625 l 5.40625,10.65625 c -6.14611,4.38954 -15.05587,6.8125 -27.15625,6.8125 -11.95908,0 -21.12516,-3.45202 -27.90625,-10.28125 -6.75384,-6.80466 -10.15625,-16.291951 -10.15625,-28.875 0,-12.333297 3.71129,-22.033143 11.21875,-29.5625 7.55852,-7.582477 16.41468,-11.28125 26.96875,-11.28125 z m 94.15625,0 c 5.26272,0 9.09814,0.830092 12.03125,2.0625 l -6.15625,12.4375 c -3.16971,-1.660406 -6.55206,-2.6875 -10.1875,-2.6875 -4.9889,0 -9.54084,2.355443 -13.21875,6.65625 -3.71266,4.343438 -5.5625,9.768619 -5.5625,15.90625 l 0,44.09375 -14.90625,0 0,-76.9375 14.90625,0 0,5.40625 0,5.25 3.5,-3.90625 c 4.92701,-5.539739 11.28021,-8.28125 19.59375,-8.28125 z M 107.15625,39.25 l 25.5,0 0,76.9375 -15.125,0 0,-63.46875 0,-2 -2,0 -8.375,0 0,-11.46875 z m 84.875,10.28125 c -5.7566,5.34e-4 -10.69038,1.62781 -14.4375,4.9375 -3.74712,3.30969 -6.22033,8.171564 -7.59375,14.375 l -0.5625,2.4375 2.5,0 39.75,0 2.21875,0 -0.21875,-2.21875 c -0.68901,-6.248572 -2.84214,-11.236621 -6.5625,-14.59375 -3.72036,-3.357129 -8.86432,-4.9375 -15.09375,-4.9375 z m 174.1875,0 c -5.7566,5.34e-4 -10.69024,1.627807 -14.4375,4.9375 -3.74726,3.309693 -6.22083,8.17147 -7.59375,14.375 l -0.5625,2.4375 2.5,0 39.75,0 2.21875,0 -0.21875,-2.21875 c -0.6885,-6.248719 -2.84189,-11.236654 -6.5625,-14.59375 -3.72061,-3.357096 -8.86479,-4.9375 -15.09375,-4.9375 z m -328.03125,2.625 c -5.263078,0 -10.00008,2.229372 -13.34375,5.78125 -0.274812,0.291924 -0.557112,0.565542 -0.8125,0.875 -0.005,0.006 0.0049,0.02529 0,0.03125 -0.108008,0.131242 -0.208106,0.271991 -0.3125,0.40625 -0.254106,0.323817 -0.486666,0.659234 -0.71875,1 -0.264045,0.387695 -0.516108,0.777836 -0.75,1.1875 -0.07648,0.134319 -0.145598,0.269837 -0.21875,0.40625 -0.0067,0.01251 -0.02456,0.01872 -0.03125,0.03125 -1.369742,2.568386 -2.15625,5.510951 -2.15625,8.625 0,3.894645 1.241738,7.499369 3.3125,10.46875 l 0,0.03125 c 0.224556,0.319785 0.474694,0.633171 0.71875,0.9375 0.107144,0.133797 0.201721,0.27556 0.3125,0.40625 0.01867,0.02258 0.04335,0.04019 0.0625,0.0625 0.298184,0.347606 0.614416,0.675712 0.9375,1 0.01047,0.01049 0.02076,0.02078 0.03125,0.03125 0.0054,0.0054 -0.0054,0.02582 0,0.03125 0.0052,0.0052 0.02604,-0.0052 0.03125,0 0.409688,0.408642 0.834577,0.787623 1.28125,1.15625 0.113459,0.09349 0.228026,0.190453 0.34375,0.28125 0.345539,0.271448 0.697616,0.534739 1.0625,0.78125 0.228934,0.154138 0.451385,0.293564 0.6875,0.4375 0.0523,0.03194 0.104142,0.06257 0.15625,0.09375 0.580572,0.347896 1.192549,0.654354 1.8125,0.9375 0.06395,0.02895 0.122857,0.06524 0.1875,0.09375 0.03015,0.01327 0.06336,0.01875 0.09375,0.03125 0.06382,0.02786 0.123301,0.0666 0.1875,0.09375 0.0613,0.02369 0.126337,0.03758 0.1875,0.0625 0.0818,0.03357 0.16761,0.06134 0.25,0.09375 0.176996,0.07355 0.351187,0.154864 0.53125,0.21875 0.09235,0.03283 0.187884,0.06222 0.28125,0.09375 0.287302,0.09748 0.581498,0.166577 0.875,0.25 0.08573,0.02429 0.164056,0.07079 0.25,0.09375 0.31822,0.08502 0.643969,0.150635 0.96875,0.21875 1.223715,0.257393 2.480984,0.40625 3.78125,0.40625 0.632849,0 1.258665,-0.03116 1.875,-0.09375 0.10411,-0.01111 0.208742,-0.04998 0.3125,-0.0625 0.04129,-0.0049 0.08379,0.0052 0.125,0 5.088426,-0.642092 9.531715,-3.351389 12.4375,-7.28125 0.01363,-0.0184 0.01769,-0.04405 0.03125,-0.0625 0.23902,-0.325796 0.469987,-0.658328 0.6875,-1 0.01216,-0.01906 0.01669,-0.04455 0.03125,-0.0625 0.01514,-0.02398 0.04747,-0.03845 0.0625,-0.0625 0.201969,-0.321557 0.380311,-0.634243 0.5625,-0.96875 0.04445,-0.08182 0.08177,-0.167438 0.125,-0.25 0.177888,-0.339063 0.343144,-0.680123 0.5,-1.03125 0.03816,-0.08541 0.08812,-0.163898 0.125,-0.25 0.0089,-0.02078 0.02243,-0.04168 0.03125,-0.0625 0.02944,-0.06961 0.0339,-0.148702 0.0625,-0.21875 0.196922,-0.48132 0.375194,-0.967894 0.53125,-1.46875 0.165864,-0.533268 0.320248,-1.072088 0.4375,-1.625 0.009,-0.04207 0.02258,-0.08282 0.03125,-0.125 0.01677,-0.08193 0.01558,-0.167672 0.03125,-0.25 0.06497,-0.340817 0.110472,-0.683978 0.15625,-1.03125 0.0232,-0.175216 0.07557,-0.35448 0.09375,-0.53125 0.01254,-0.123472 0.02117,-0.250816 0.03125,-0.375 0.04105,-0.498899 0.0625,-0.990299 0.0625,-1.5 0,-0.559201 -0.04474,-1.109803 -0.09375,-1.65625 -0.01262,-0.12596 -0.02166,-0.250152 -0.03125,-0.375 -0.0034,-0.03055 0.0035,-0.06325 0,-0.09375 -0.0086,-0.07395 -0.02182,-0.145066 -0.03125,-0.21875 -0.01459,-0.104288 -0.04615,-0.208762 -0.0625,-0.3125 -0.0951,-0.655877 -0.243632,-1.306038 -0.40625,-1.9375 -0.0025,-0.0098 0.0025,-0.0215 0,-0.03125 -0.368224,-1.420082 -0.884339,-2.766782 -1.5625,-4.03125 -0.0153,-0.0285 -0.01581,-0.06534 -0.03125,-0.09375 -0.252896,-0.46554 -0.521554,-0.903672 -0.8125,-1.34375 -0.03312,-0.05009 -0.06015,-0.106516 -0.09375,-0.15625 -0.587995,-0.870347 -1.275194,-1.68229 -2,-2.4375 -0.376875,-0.392684 -0.777224,-0.767033 -1.1875,-1.125 -0.418674,-0.365294 -0.861625,-0.70469 -1.3125,-1.03125 -0.447483,-0.324103 -0.898359,-0.622861 -1.375,-0.90625 -0.478776,-0.284659 -0.963133,-0.54025 -1.46875,-0.78125 -0.512349,-0.244209 -1.025261,-0.490791 -1.5625,-0.6875 -0.596416,-0.218377 -1.220156,-0.40616 -1.84375,-0.5625 -0.04125,-0.01034 -0.08364,-0.02119 -0.125,-0.03125 -0.219502,-0.05318 -0.433582,-0.111058 -0.65625,-0.15625 -0.452975,-0.09269 -0.910526,-0.16014 -1.375,-0.21875 -0.759321,-0.09582 -1.527179,-0.15625 -2.3125,-0.15625 z m 153.84375,1.375 c 5.56157,0 9.57273,1.349379 12.40625,3.90625 2.42793,2.190888 4.05925,5.459237 4.875,9.84375 l -34.75,0 c 1.29147,-4.345091 3.19487,-7.610848 5.6875,-9.8125 2.94851,-2.60431 6.75485,-3.937034 11.78125,-3.9375 z m 174.1875,0 c 5.56104,0 9.57248,1.349346 12.40625,3.90625 2.42815,2.190916 4.05952,5.45935 4.875,9.84375 l -34.75,0 c 1.29116,-4.345015 3.19478,-7.61085 5.6875,-9.8125 2.94862,-2.604307 6.75485,-3.937034 11.78125,-3.9375 z m -305.1875,15.625 c 0.02743,0.447714 0.03125,0.889468 0.03125,1.34375 0,0.634473 -0.04054,1.253764 -0.09375,1.875 -0.0026,0.03074 0.0027,0.06304 0,0.09375 -0.04464,0.496421 -0.110172,0.982029 -0.1875,1.46875 -0.023,0.145649 -0.03665,0.292778 -0.0625,0.4375 -0.01297,0.07219 -0.01758,0.146792 -0.03125,0.21875 -0.06795,0.357599 -0.164897,0.71099 -0.25,1.0625 -0.09394,0.38992 -0.198082,0.774358 -0.3125,1.15625 -0.04296,0.143094 -0.07922,0.29559 -0.125,0.4375 -0.0854,0.264865 -0.186209,0.520661 -0.28125,0.78125 -0.158567,0.433882 -0.315513,0.859954 -0.5,1.28125 -0.0054,0.01233 -0.02584,0.01893 -0.03125,0.03125 -0.142527,0.324775 -0.280081,0.651957 -0.4375,0.96875 -0.16456,0.330178 -0.35104,0.678969 -0.53125,1 -0.02269,0.04044 -0.03956,0.08472 -0.0625,0.125 -0.15895,0.279068 -0.329562,0.540779 -0.5,0.8125 -0.158709,0.252948 -0.300345,0.503692 -0.46875,0.75 -0.245396,0.358957 -0.516068,0.718293 -0.78125,1.0625 -0.112285,0.145624 -0.228018,0.294621 -0.34375,0.4375 43.404845,44.80144 -19.243614,51.94518 -43.59375,35.21875 -1.334,14 -15.3324984,17.996 -4.5625,17.75 137.379,-3.144 386.09925,-19.42175 389.03125,12.40625 20.868,-16.49 38.5655,-15.803 97.5625,-15.5 -46.996,-16.803 -251.18875,-8.838 -308.96875,-7.5 -126.586073,4.73105 -65.49576,-17.92061 -124.5,-57.71875 z m -37.875,18.5 0.03125,24.875 c 0.002,3.937 3.1055,7.128 6.9375,7.125 l 3.46875,0 c 3.835,-0.002 6.9385,-3.21825 6.9375,-7.15625 L 40.5,93 c -0.07343,0.0081 -0.145257,0.02359 -0.21875,0.03125 -0.765093,0.07731 -1.530125,0.125 -2.3125,0.125 -0.58115,0 -1.148641,-0.01958 -1.71875,-0.0625 -0.198293,-0.0149 -0.396905,-0.04254 -0.59375,-0.0625 -0.02036,-0.0021 -0.04216,0.0021 -0.0625,0 C 35.059819,92.975619 34.522214,92.90452 34,92.8125 33.799681,92.77728 33.604724,92.72793 33.40625,92.6875 32.941392,92.59245 32.485237,92.466776 32.03125,92.34375 31.896268,92.307245 31.758971,92.28892 31.625,92.25 31.491424,92.211179 31.351293,92.1662 31.21875,92.125 30.785749,91.990404 30.358911,91.846928 29.9375,91.6875 29.675008,91.588103 29.413972,91.483751 29.15625,91.375 28.804307,91.226211 28.436325,91.072048 28.09375,90.90625 27.590714,90.662793 27.106424,90.403718 26.625,90.125 c -0.137495,-0.07949 -0.270609,-0.16772 -0.40625,-0.25 -0.401887,-0.244125 -0.802541,-0.513331 -1.1875,-0.78125 -0.190209,-0.1323 -0.376626,-0.268325 -0.5625,-0.40625 -0.01871,-0.0139 -0.04384,-0.0173 -0.0625,-0.03125 -0.292644,-0.218533 -0.562335,-0.455379 -0.84375,-0.6875 -0.131666,-0.10865 -0.277108,-0.200956 -0.40625,-0.3125 z"
   transform="translate(0,-1.2458853e-6)"
   style="color:#000000;fill:#2456a1;fill-opacity:1;stroke:none;stroke-width:4;marker:none;display:inline;overflow:visible;enable-background:accumulate;"
   id="path5" />
</svg>
