<svg width="32" height="22" viewBox="0 0 32 22" fill="none" xmlns="http://www.w3.org/2000/svg">
<path d="M29.7204 0.392386L11.295 18.8164C11.1712 18.9408 11.0239 19.0394 10.8618 19.1068C10.6997 19.1741 10.5259 19.2088 10.3504 19.2088C10.1748 19.2088 10.001 19.1741 9.83892 19.1068C9.67681 19.0394 9.52959 18.9408 9.40571 18.8164L2.28038 11.6844C2.1565 11.56 2.00928 11.4613 1.84717 11.394C1.68506 11.3267 1.51125 11.292 1.33571 11.292C1.16017 11.292 0.98636 11.3267 0.82425 11.394C0.66214 11.4613 0.514922 11.56 0.391043 11.6844C0.266674 11.8083 0.16799 11.9555 0.100655 12.1176C0.0333194 12.2797 -0.00134277 12.4535 -0.00134277 12.6291C-0.00134277 12.8046 0.0333194 12.9784 0.100655 13.1405C0.16799 13.3026 0.266674 13.4498 0.391043 13.5737L7.51904 20.7004C8.27097 21.4509 9.28997 21.8724 10.3524 21.8724C11.4148 21.8724 12.4338 21.4509 13.1857 20.7004L31.6097 2.28039C31.7339 2.15653 31.8324 2.0094 31.8996 1.84741C31.9668 1.68542 32.0014 1.51177 32.0014 1.33639C32.0014 1.16101 31.9668 0.98735 31.8996 0.825363C31.8324 0.663375 31.7339 0.516241 31.6097 0.392386C31.4858 0.268017 31.3386 0.169334 31.1765 0.101998C31.0144 0.0346625 30.8406 0 30.665 0C30.4895 0 30.3157 0.0346625 30.1536 0.101998C29.9915 0.169334 29.8443 0.268017 29.7204 0.392386Z" fill="black"/>
</svg>
