<svg xmlns="http://www.w3.org/2000/svg" viewBox="0 0 32 32">
<path d="M20.845 22.043l10.49-10.238c0.426-0.418 0.665-0.983 0.665-1.573s-0.239-1.155-0.665-1.573c-0.212-0.209-0.465-0.375-0.744-0.488s-0.577-0.172-0.879-0.172-0.6 0.058-0.879 0.172c-0.279 0.113-0.531 0.279-0.744 0.488l-10.468 10.261c-0.212 0.209-0.465 0.375-0.744 0.488s-0.577 0.171-0.879 0.171-0.6-0.058-0.879-0.171c-0.279-0.113-0.531-0.279-0.744-0.488l-10.468-10.261c-0.427-0.42-1.008-0.657-1.615-0.659s-1.189 0.231-1.619 0.648c-0.43 0.417-0.673 0.984-0.675 1.576s0.237 1.16 0.664 1.58l10.49 10.238c1.286 1.253 3.028 1.957 4.845 1.957s3.56-0.704 4.845-1.957z"></path>
</svg>
