<svg xmlns="http://www.w3.org/2000/svg" viewBox="0 0 32 32">
<path d="M11.155 9.957l-10.49 10.238c-0.426 0.418-0.665 0.983-0.665 1.573s0.239 1.155 0.665 1.573c0.212 0.209 0.465 0.375 0.744 0.488s0.577 0.172 0.879 0.172 0.6-0.058 0.879-0.172c0.279-0.113 0.531-0.279 0.744-0.488l10.468-10.261c0.212-0.209 0.465-0.375 0.744-0.488s0.577-0.171 0.879-0.171 0.6 0.058 0.879 0.171c0.279 0.113 0.531 0.279 0.744 0.488l10.468 10.261c0.427 0.42 1.008 0.657 1.615 0.659s1.189-0.231 1.619-0.648c0.43-0.417 0.673-0.984 0.675-1.576s-0.237-1.16-0.664-1.58l-10.49-10.238c-1.286-1.253-3.028-1.957-4.845-1.957s-3.56 0.704-4.845 1.957z"></path>
</svg>
