<svg xmlns="http://www.w3.org/2000/svg" viewBox="0 0 32 32">
<path d="M22.043 11.155l-10.238-10.49c-0.418-0.426-0.983-0.665-1.573-0.665s-1.155 0.239-1.573 0.665c-0.209 0.212-0.375 0.465-0.488 0.744s-0.172 0.577-0.172 0.879 0.058 0.6 0.172 0.879c0.113 0.279 0.279 0.531 0.488 0.744l10.261 10.468c0.209 0.212 0.375 0.465 0.488 0.744s0.171 0.577 0.171 0.879-0.058 0.6-0.171 0.879c-0.113 0.279-0.279 0.531-0.488 0.744l-10.261 10.468c-0.42 0.427-0.657 1.008-0.659 1.615s0.231 1.189 0.648 1.619c0.417 0.43 0.984 0.673 1.576 0.675s1.16-0.237 1.58-0.664l10.238-10.49c1.253-1.286 1.957-3.028 1.957-4.845s-0.704-3.56-1.957-4.845z"></path>
</svg>
