<!-- Generated by IcoMoon.io -->
<svg version="1.1" xmlns="http://www.w3.org/2000/svg" width="32" height="32" viewBox="0 0 32 32">
<path d="M31.61 29.725c0.52 0.52 0.52 1.366 0 1.886-0.261 0.261-0.603 0.389-0.944 0.389s-0.683-0.131-0.944-0.389l-13.722-13.725-13.722 13.725c-0.261 0.261-0.603 0.389-0.944 0.389s-0.683-0.131-0.944-0.389c-0.52-0.52-0.52-1.366 0-1.886l13.722-13.725-13.722-13.725c-0.52-0.52-0.52-1.366 0-1.886s1.365-0.52 1.885 0l13.722 13.725 13.722-13.725c0.52-0.52 1.365-0.52 1.885 0s0.52 1.366 0 1.886l-13.722 13.725 13.728 13.725z"></path>
</svg>
