<svg viewBox="0 0 24 24" xmlns="http://www.w3.org/2000/svg">
<path d="M12 24C18.6274 24 24 18.6274 24 12C24 5.37258 18.6274 0 12 0C5.37258 0 0 5.37258 0 12C0.00717187 18.6245 5.37553 23.9928 12 24ZM7.05 7.05C9.78577 4.32094 14.2142 4.32094 16.95 7.05C17.3337 7.44727 17.3227 8.08031 16.9254 8.46398C16.5379 8.83828 15.9235 8.83828 15.536 8.46398C13.5832 6.51164 10.4173 6.51202 8.46497 8.46492C6.51262 10.4178 6.513 13.5836 8.46591 15.536C10.4184 17.488 13.5835 17.488 15.5361 15.536C15.9333 15.1523 16.5664 15.1633 16.95 15.5606C17.3243 15.9481 17.3243 16.5624 16.95 16.95C14.2163 19.6838 9.78384 19.6838 7.05005 16.95C4.3162 14.2162 4.3162 9.7838 7.05 7.05Z"/>
</svg>
