<svg viewBox="0 0 24 24" xmlns="http://www.w3.org/2000/svg">
<path d="M22.8015 9.51449C21.9363 8.09782 20.8451 6.83236 19.5709 5.76837L22.2543 3.08504C22.4288 2.90429 22.5254 2.66222 22.5233 2.41094C22.5211 2.15967 22.4203 1.91931 22.2426 1.74163C22.0649 1.56394 21.8246 1.46316 21.5733 1.46097C21.322 1.45879 21.0799 1.55538 20.8992 1.72995L17.9811 4.65191C16.1721 3.57745 14.1041 3.01744 12.0001 3.03233C6.06707 3.03233 2.68607 7.09374 1.19874 9.51449C0.739241 10.2577 0.49585 11.1142 0.49585 11.988C0.49585 12.8617 0.739241 13.7182 1.19874 14.4614C2.06388 15.8781 3.15516 17.1435 4.42928 18.2075L1.74594 20.8909C1.65441 20.9793 1.58141 21.085 1.53118 21.2019C1.48095 21.3189 1.45452 21.4446 1.45341 21.5719C1.45231 21.6991 1.47655 21.8253 1.52474 21.9431C1.57293 22.0609 1.64408 22.1679 1.73407 22.2578C1.82405 22.3478 1.93105 22.419 2.04882 22.4672C2.1666 22.5153 2.29279 22.5396 2.42004 22.5385C2.54728 22.5374 2.67304 22.5109 2.78996 22.4607C2.90688 22.4105 3.01262 22.3375 3.10103 22.246L6.02586 19.3211C7.83257 20.3954 9.89817 20.9564 12.0001 20.9436C17.9332 20.9436 21.3142 16.8822 22.8015 14.4614C23.261 13.7182 23.5044 12.8617 23.5044 11.988C23.5044 11.1142 23.261 10.2577 22.8015 9.51449ZM2.83174 13.458C2.55874 13.0163 2.41414 12.5072 2.41414 11.988C2.41414 11.4687 2.55874 10.9596 2.83174 10.5179C4.11015 8.44212 6.99953 4.949 12.0001 4.949C13.5912 4.94008 15.16 5.32355 16.5675 6.06545L14.6384 7.99458C13.7183 7.38374 12.6153 7.11003 11.5164 7.21991C10.4175 7.32978 9.39044 7.81646 8.60953 8.59737C7.82862 9.37828 7.34194 10.4053 7.23206 11.5042C7.12219 12.6031 7.3959 13.7062 8.00674 14.6262L5.79298 16.84C4.61913 15.891 3.61741 14.7469 2.83174 13.458ZM14.8751 11.988C14.8751 12.7505 14.5722 13.4817 14.033 14.0209C13.4939 14.5601 12.7626 14.863 12.0001 14.863C11.5732 14.8613 11.1522 14.763 10.7687 14.5755L14.5876 10.7565C14.7752 11.14 14.8735 11.561 14.8751 11.988ZM9.12511 11.988C9.12511 11.2255 9.42801 10.4942 9.96718 9.95502C10.5063 9.41585 11.2376 9.11295 12.0001 9.11295C12.427 9.11461 12.848 9.2129 13.2316 9.40045L9.41261 13.2194C9.22505 12.8359 9.12676 12.4149 9.12511 11.988ZM21.1685 13.458C19.8901 15.5338 17.0007 19.0269 12.0001 19.0269C10.409 19.0358 8.84026 18.6524 7.43269 17.9105L9.36182 15.9813C10.2819 16.5922 11.385 16.8659 12.4838 16.756C13.5827 16.6461 14.6098 16.1594 15.3907 15.3785C16.1716 14.5976 16.6583 13.5706 16.7682 12.4717C16.878 11.3728 16.6043 10.2697 15.9935 9.34966L18.2072 7.13591C19.3811 8.08493 20.3828 9.22896 21.1685 10.5179C21.4415 10.9596 21.5861 11.4687 21.5861 11.988C21.5861 12.5072 21.4415 13.0163 21.1685 13.458Z" fill="currentColor"/>
</svg>
