<svg viewBox="0 0 24 24" xmlns="http://www.w3.org/2000/svg">
<path d="M22.8015 9.52611C21.3151 7.10536 17.9341 3.04395 12.0001 3.04395C6.06611 3.04395 2.68511 7.10536 1.19874 9.52611C0.739241 10.2693 0.49585 11.1258 0.49585 11.9996C0.49585 12.8733 0.739241 13.7298 1.19874 14.473C2.68511 16.8938 6.06611 20.9552 12.0001 20.9552C17.9341 20.9552 21.3151 16.8938 22.8015 14.473C23.261 13.7298 23.5044 12.8733 23.5044 11.9996C23.5044 11.1258 23.261 10.2693 22.8015 9.52611ZM21.1675 13.4697C19.891 15.5454 17.0017 19.0385 12.0001 19.0385C6.99857 19.0385 4.10919 15.5454 2.83269 13.4697C2.5597 13.0279 2.4151 12.5189 2.4151 11.9996C2.4151 11.4803 2.5597 10.9712 2.83269 10.5295C4.10919 8.45374 6.99857 4.96061 12.0001 4.96061C17.0017 4.96061 19.891 8.4499 21.1675 10.5295C21.4405 10.9712 21.5851 11.4803 21.5851 11.9996C21.5851 12.5189 21.4405 13.0279 21.1675 13.4697Z" fill="currentColor"/>
<path d="M12 7C11.0111 7 10.0444 7.29324 9.22215 7.84265C8.39991 8.39206 7.75904 9.17295 7.3806 10.0866C7.00217 11.0002 6.90315 12.0055 7.09608 12.9755C7.289 13.9454 7.76521 14.8363 8.46447 15.5355C9.16373 16.2348 10.0546 16.711 11.0246 16.9039C11.9945 17.0969 12.9998 16.9978 13.9134 16.6194C14.827 16.241 15.6079 15.6001 16.1574 14.7779C16.7068 13.9556 17 12.9889 17 12C16.9984 10.6744 16.4711 9.40356 15.5338 8.46622C14.5964 7.52888 13.3256 7.00159 12 7ZM12 15C11.4067 15 10.8266 14.8241 10.3333 14.4944C9.83994 14.1648 9.45543 13.6962 9.22836 13.1481C9.0013 12.5999 8.94189 11.9967 9.05765 11.4147C9.1734 10.8328 9.45912 10.2982 9.87868 9.87868C10.2982 9.45912 10.8328 9.1734 11.4147 9.05764C11.9967 8.94189 12.5999 9.0013 13.1481 9.22836C13.6962 9.45542 14.1648 9.83994 14.4944 10.3333C14.8241 10.8266 15 11.4067 15 12C15 12.7956 14.6839 13.5587 14.1213 14.1213C13.5587 14.6839 12.7957 15 12 15Z" fill="currentColor"/>
</svg>
