<svg xmlns="http://www.w3.org/2000/svg" viewBox="0 0 32 32">
<path d="M15.999 0c-8.836 0-15.999 7.344-15.999 16.404 0 7.248 4.584 13.397 10.941 15.566 0.8 0.152 1.093-0.356 1.093-0.789 0-0.391-0.015-1.683-0.021-3.054-4.45 0.993-5.39-1.936-5.39-1.936-0.728-1.896-1.776-2.4-1.776-2.4-1.452-1.019 0.109-0.997 0.109-0.997 1.607 0.116 2.452 1.691 2.452 1.691 1.427 2.507 3.742 1.783 4.656 1.363 0.144-1.061 0.559-1.784 1.016-2.194-3.553-0.414-7.289-1.821-7.289-8.107 0-1.791 0.625-3.255 1.649-4.403-0.167-0.414-0.715-2.082 0.155-4.342 0 0 1.344-0.44 4.401 1.681 1.276-0.364 2.644-0.545 4.004-0.552 1.36 0.007 2.729 0.189 4.008 0.552 3.053-2.123 4.396-1.681 4.396-1.681 0.871 2.26 0.323 3.928 0.157 4.342 1.025 1.148 1.647 2.612 1.647 4.403 0 6.301-3.742 7.688-7.305 8.094 0.573 0.509 1.085 1.508 1.085 3.037 0 2.195-0.019 3.962-0.019 4.502 0 0.436 0.288 0.949 1.099 0.787 6.354-2.172 10.933-8.318 10.933-15.564-0.001-9.061-7.165-16.406-16.001-16.406z" />
<path d="M6.060 23.554c-0.035 0.082-0.16 0.107-0.275 0.051-0.116-0.053-0.181-0.165-0.144-0.246 0.035-0.083 0.16-0.107 0.276-0.050 0.116 0.052 0.183 0.164 0.143 0.246z" />
<path d="M6.708 24.295c-0.076 0.072-0.225 0.038-0.327-0.075-0.105-0.115-0.124-0.268-0.047-0.34 0.079-0.072 0.223-0.038 0.328 0.077 0.105 0.113 0.125 0.265 0.045 0.339z" />
<path d="M7.339 25.24c-0.099 0.070-0.259 0.004-0.357-0.141-0.099-0.146-0.099-0.321 0.003-0.391 0.099-0.070 0.257-0.007 0.357 0.138 0.097 0.148 0.097 0.323-0.003 0.394z" />
<path d="M8.202 26.152c-0.088 0.1-0.275 0.072-0.411-0.063-0.14-0.133-0.179-0.32-0.091-0.42 0.089-0.1 0.277-0.071 0.415 0.063 0.139 0.133 0.18 0.321 0.087 0.42z" />
<path d="M9.396 26.681c-0.039 0.128-0.219 0.187-0.4 0.133-0.181-0.056-0.3-0.206-0.263-0.336s0.219-0.19 0.401-0.131c0.18 0.055 0.299 0.205 0.261 0.335z" />
<path d="M10.705 26.78c0.004 0.135-0.149 0.247-0.34 0.25-0.191 0.004-0.347-0.105-0.348-0.238 0-0.137 0.151-0.247 0.341-0.252s0.347 0.105 0.347 0.239z" />
<path d="M11.924 26.568c0.023 0.131-0.109 0.268-0.299 0.303-0.185 0.036-0.357-0.046-0.381-0.178-0.023-0.135 0.112-0.271 0.297-0.306 0.188-0.034 0.359 0.045 0.383 0.18z" />
</svg>
