<svg xmlns="http://www.w3.org/2000/svg" viewBox="0 0 32 32">
<path d="M19.336 15.981c0 1.908-1.547 3.455-3.455 3.455s-3.453-1.547-3.453-3.455c0-1.908 1.547-3.455 3.453-3.455s3.455 1.547 3.455 3.455z" />
<path d="M16 0c-8.836 0-16 7.164-16 16s7.164 16 16 16c8.836 0 16-7.164 16-16s-7.164-16-16-16zM26.183 20.253c-0.049 1.103-0.225 1.856-0.481 2.515-0.265 0.681-0.62 1.26-1.196 1.836s-1.155 0.931-1.835 1.195c-0.659 0.256-1.413 0.431-2.516 0.481-1.105 0.051-1.459 0.063-4.273 0.063s-3.167-0.012-4.272-0.063c-1.103-0.051-1.856-0.225-2.516-0.481-0.681-0.264-1.259-0.62-1.836-1.195-0.576-0.576-0.931-1.155-1.196-1.836-0.256-0.659-0.431-1.412-0.481-2.515-0.051-1.105-0.063-1.459-0.063-4.273s0.012-3.167 0.063-4.272c0.051-1.103 0.225-1.856 0.481-2.516 0.265-0.681 0.62-1.259 1.196-1.835s1.155-0.931 1.836-1.196c0.659-0.256 1.413-0.431 2.516-0.481 1.105-0.051 1.459-0.063 4.272-0.063s3.168 0.012 4.273 0.063c1.103 0.049 1.856 0.225 2.516 0.481 0.681 0.264 1.259 0.62 1.835 1.196s0.931 1.155 1.196 1.835c0.256 0.659 0.431 1.413 0.481 2.516 0.051 1.105 0.063 1.457 0.063 4.272s-0.012 3.167-0.063 4.273zM23.961 9.869c-0.188-0.484-0.412-0.829-0.776-1.192-0.363-0.363-0.708-0.588-1.192-0.776-0.365-0.141-0.913-0.311-1.924-0.356-1.093-0.051-1.421-0.060-4.188-0.060s-3.095 0.011-4.188 0.060c-1.009 0.045-1.559 0.215-1.924 0.356-0.484 0.188-0.829 0.412-1.192 0.776-0.363 0.363-0.588 0.708-0.776 1.192-0.141 0.365-0.311 0.913-0.356 1.924-0.051 1.092-0.060 1.42-0.060 4.188s0.011 3.095 0.060 4.188c0.047 1.009 0.215 1.559 0.356 1.924 0.188 0.484 0.412 0.829 0.776 1.192 0.363 0.363 0.708 0.587 1.192 0.775 0.365 0.143 0.913 0.311 1.924 0.357 1.092 0.051 1.42 0.060 4.188 0.060s3.096-0.011 4.188-0.060c1.011-0.047 1.559-0.215 1.924-0.357 0.484-0.188 0.829-0.412 1.192-0.775s0.588-0.708 0.776-1.192c0.141-0.365 0.311-0.913 0.356-1.924 0.051-1.093 0.061-1.421 0.061-4.188s-0.011-3.095-0.061-4.188c-0.047-1.011-0.215-1.559-0.356-1.924zM15.883 21.301c-2.939 0-5.321-2.383-5.321-5.321s2.383-5.321 5.321-5.321c2.939 0 5.321 2.383 5.321 5.321s-2.383 5.321-5.321 5.321zM21.415 11.692c-0.687 0-1.244-0.556-1.244-1.243s0.556-1.244 1.244-1.244 1.244 0.557 1.244 1.244c0 0.687-0.557 1.243-1.244 1.243z"/>
</svg>
