<svg viewBox="0 0 46 46" xmlns="http://www.w3.org/2000/svg">
<path d="M23 46C18.451 46 14.0042 44.6511 10.2219 42.1238C6.43956 39.5965 3.4916 36.0044 1.75078 31.8017C0.00996558 27.599 -0.445511 22.9745 0.441949 18.5129C1.32941 14.0514 3.51995 9.95316 6.73655 6.73655C9.95316 3.51995 14.0514 1.32941 18.5129 0.441949C22.9745 -0.445511 27.599 0.00996558 31.8017 1.75078C36.0044 3.4916 39.5965 6.43956 42.1238 10.2219C44.6511 14.0042 46 18.451 46 23C45.9934 29.098 43.5681 34.9443 39.2562 39.2562C34.9443 43.5681 29.098 45.9934 23 46ZM23 3.83334C19.2092 3.83334 15.5035 4.95745 12.3516 7.06351C9.19964 9.16957 6.743 12.163 5.29232 15.6652C3.84164 19.1675 3.46208 23.0213 4.20163 26.7392C4.94118 30.4572 6.76662 33.8724 9.44713 36.5529C12.1276 39.2334 15.5428 41.0588 19.2608 41.7984C22.9787 42.5379 26.8325 42.1584 30.3348 40.7077C33.837 39.257 36.8304 36.8004 38.9365 33.6484C41.0426 30.4965 42.1667 26.7908 42.1667 23C42.1611 17.9184 40.14 13.0465 36.5467 9.45329C32.9535 5.86006 28.0816 3.83892 23 3.83334ZM30.6667 28.75H15.3333V32.5833H30.6667V28.75ZM11.5 19.1667V21.0833H19.1667V19.1667C19.1667 18.15 18.7628 17.175 18.0439 16.4561C17.325 15.7372 16.35 15.3333 15.3333 15.3333C14.3167 15.3333 13.3417 15.7372 12.6228 16.4561C11.9039 17.175 11.5 18.15 11.5 19.1667ZM26.8333 19.1667V21.0833H34.5V19.1667C34.5 18.15 34.0961 17.175 33.3773 16.4561C32.6584 15.7372 31.6833 15.3333 30.6667 15.3333C29.65 15.3333 28.675 15.7372 27.9561 16.4561C27.2372 17.175 26.8333 18.15 26.8333 19.1667Z" fill="currentColor"/>
</svg>
