<svg viewBox="0 0 32 32" xmlns="http://www.w3.org/2000/svg">
<path d="M29.6956 14.1309H2.30433C1.58396 14.1309 1 14.7148 1 15.4352C1 16.1556 1.58396 16.7395 2.30433 16.7395H29.6956C30.416 16.7395 30.9999 16.1556 30.9999 15.4352C31 14.7148 30.416 14.1309 29.6956 14.1309Z"/>
<path d="M2.30433 7.60865H29.6956C30.416 7.60865 30.9999 7.02469 30.9999 6.30433C30.9999 5.58396 30.416 5 29.6956 5H2.30433C1.58396 5 1 5.58396 1 6.30433C1 7.02469 1.58396 7.60865 2.30433 7.60865Z"/>
<path d="M29.6956 23.2607H2.30433C1.58396 23.2607 1 23.8448 1 24.5651C1 25.2855 1.58396 25.8695 2.30433 25.8695H29.6956C30.416 25.8695 30.9999 25.2855 30.9999 24.5651C31 23.8448 30.416 23.2607 29.6956 23.2607Z"/>
</svg>
