<svg xmlns="http://www.w3.org/2000/svg" viewBox="0 0 32 32">
<path d="M16 0c-8.836 0-16 7.164-16 16s7.164 16 16 16c8.836 0 16-7.164 16-16s-7.164-16-16-16zM25.919 13.977c-2.027 0-3.907-0.648-5.441-1.749v7.948c0 3.969-3.229 7.199-7.199 7.199-1.535 0-2.956-0.484-4.125-1.304-1.857-1.304-3.073-3.459-3.073-5.895 0-3.969 3.229-7.199 7.199-7.199 0.329 0 0.652 0.027 0.969 0.071v3.992c-0.307-0.096-0.632-0.152-0.969-0.152-1.813 0-3.288 1.475-3.288 3.288 0 1.263 0.716 2.359 1.763 2.911 0.456 0.24 0.975 0.377 1.525 0.377 1.772 0 3.216-1.409 3.281-3.164l0.007-15.675h3.911c0 0.339 0.033 0.671 0.092 0.992 0.276 1.489 1.16 2.769 2.385 3.568 0.853 0.557 1.871 0.881 2.963 0.881l0.001 3.911z" />
</svg>
