<svg xmlns="http://www.w3.org/2000/svg" viewBox="0 0 32 32">
<path d="M13.677 12.623l5.936 3.377-5.936 3.377v-6.755z" />
<path d="M16 0c-8.836 0-16 7.164-16 16s7.164 16 16 16c8.836 0 16-7.164 16-16s-7.164-16-16-16zM26.88 21.501c-0.26 0.983-1.031 1.757-2.008 2.021-1.771 0.477-8.872 0.477-8.872 0.477s-7.101 0-8.872-0.477c-0.977-0.263-1.747-1.037-2.008-2.021-0.476-1.783-0.476-5.501-0.476-5.501s0-3.719 0.476-5.501c0.26-0.983 1.031-1.757 2.008-2.020 1.771-0.477 8.872-0.477 8.872-0.477s7.101 0 8.872 0.477c0.977 0.263 1.747 1.037 2.008 2.020 0.475 1.783 0.475 5.501 0.475 5.501s0 3.719-0.475 5.501z" />
</svg>
