<?xml version="1.0" encoding="UTF-8" standalone="no"?>
<!-- Created with Inkscape (http://www.inkscape.org/) -->

<svg
   width="210mm"
   height="297mm"
   viewBox="0 0 210 297"
   version="1.1"
   id="svg5"
   inkscape:version="1.2.2 (b0a8486541, 2022-12-01)"
   sodipodi:docname="drawing.svg"
   inkscape:export-filename="graph-1x1.png"
   inkscape:export-xdpi="8.5521889"
   inkscape:export-ydpi="8.5521889"
   xmlns:inkscape="http://www.inkscape.org/namespaces/inkscape"
   xmlns:sodipodi="http://sodipodi.sourceforge.net/DTD/sodipodi-0.dtd"
   xmlns="http://www.w3.org/2000/svg"
   xmlns:svg="http://www.w3.org/2000/svg">
  <sodipodi:namedview
     id="namedview7"
     pagecolor="#ffffff"
     bordercolor="#000000"
     borderopacity="0.25"
     inkscape:showpageshadow="2"
     inkscape:pageopacity="0.0"
     inkscape:pagecheckerboard="0"
     inkscape:deskcolor="#d1d1d1"
     inkscape:document-units="mm"
     showgrid="false"
     inkscape:zoom="1.6428527"
     inkscape:cx="279.6964"
     inkscape:cy="309.82692"
     inkscape:window-width="1600"
     inkscape:window-height="831"
     inkscape:window-x="0"
     inkscape:window-y="0"
     inkscape:window-maximized="1"
     inkscape:current-layer="layer1" />
  <defs
     id="defs2" />
  <g
     inkscape:label="Layer 1"
     inkscape:groupmode="layer"
     id="layer1">
    <rect
       style="fill:none;stroke:#777777;stroke-width:0.541144;stroke-dasharray:none;stroke-opacity:1"
       id="rect788"
       width="17.564079"
       height="15.345554"
       x="109.151"
       y="53.100235"
       inkscape:export-filename="graph-1x1.svg"
       inkscape:export-xdpi="8.5521889"
       inkscape:export-ydpi="8.5521889" />
    <rect
       style="fill:none;stroke:#777777;stroke-width:0.5;stroke-dasharray:none;stroke-opacity:1"
       id="rect788-9-1"
       width="17.738482"
       height="6.9789281"
       x="85.82605"
       y="61.555988"
       inkscape:export-filename="./graph-2x1.svg"
       inkscape:export-xdpi="159.88217"
       inkscape:export-ydpi="159.88217" />
    <rect
       style="fill:none;stroke:#777777;stroke-width:0.5;stroke-dasharray:none;stroke-opacity:1"
       id="rect788-9-2"
       width="17.738482"
       height="6.9789281"
       x="85.82605"
       y="53.089314" />
    <rect
       style="fill:none;stroke:#777777;stroke-width:0.5;stroke-dasharray:none;stroke-opacity:1"
       id="rect788-6-3"
       width="16.773201"
       height="2.8458309"
       x="61.1185"
       y="53.115913"
       inkscape:export-filename="./graph-nx1.svg"
       inkscape:export-xdpi="159.88217"
       inkscape:export-ydpi="159.88217" />
    <rect
       style="fill:none;stroke:#777777;stroke-width:0.5;stroke-dasharray:none;stroke-opacity:1"
       id="rect788-6-5"
       width="16.773201"
       height="2.8458309"
       x="61.1185"
       y="57.349251" />
    <rect
       style="fill:none;stroke:#777777;stroke-width:0.5;stroke-dasharray:none;stroke-opacity:1"
       id="rect788-6-6"
       width="16.773201"
       height="2.8458309"
       x="61.1185"
       y="61.582588" />
    <rect
       style="fill:none;stroke:#777777;stroke-width:0.5;stroke-dasharray:none;stroke-opacity:1"
       id="rect788-6-2"
       width="16.773201"
       height="2.8458309"
       x="61.1185"
       y="65.815926" />
    <rect
       style="fill:none;stroke:#777777;stroke-width:0.5;stroke-dasharray:none;stroke-opacity:1"
       id="rect788-6-3-7"
       width="4.0433636"
       height="2.8920581"
       x="45.367016"
       y="52.926067"
       inkscape:export-filename="./graph-4x4.svg"
       inkscape:export-xdpi="159.88217"
       inkscape:export-ydpi="159.88217" />
    <rect
       style="fill:none;stroke:#777777;stroke-width:0.5;stroke-dasharray:none;stroke-opacity:1"
       id="rect788-6-5-0"
       width="4.0433636"
       height="2.8920581"
       x="45.367016"
       y="57.228172" />
    <rect
       style="fill:none;stroke:#777777;stroke-width:0.5;stroke-dasharray:none;stroke-opacity:1"
       id="rect788-6-6-9"
       width="4.0433636"
       height="2.8920581"
       x="45.367016"
       y="61.530273" />
    <rect
       style="fill:none;stroke:#777777;stroke-width:0.5;stroke-dasharray:none;stroke-opacity:1"
       id="rect788-6-2-3"
       width="4.0433636"
       height="2.8920581"
       x="45.367016"
       y="65.832382" />
    <rect
       style="fill:none;stroke:#777777;stroke-width:0.5;stroke-dasharray:none;stroke-opacity:1"
       id="rect788-6-3-7-6"
       width="4.0433636"
       height="2.8920581"
       x="50.717869"
       y="52.85976" />
    <rect
       style="fill:none;stroke:#777777;stroke-width:0.5;stroke-dasharray:none;stroke-opacity:1"
       id="rect788-6-5-0-0"
       width="4.0433636"
       height="2.8920581"
       x="50.717869"
       y="57.161865" />
    <rect
       style="fill:none;stroke:#777777;stroke-width:0.5;stroke-dasharray:none;stroke-opacity:1"
       id="rect788-6-6-9-6"
       width="4.0433636"
       height="2.8920581"
       x="50.717869"
       y="61.463966" />
    <rect
       style="fill:none;stroke:#777777;stroke-width:0.5;stroke-dasharray:none;stroke-opacity:1"
       id="rect788-6-2-3-2"
       width="4.0433636"
       height="2.8920581"
       x="50.717869"
       y="65.766068" />
    <rect
       style="fill:none;stroke:#777777;stroke-width:0.5;stroke-dasharray:none;stroke-opacity:1"
       id="rect788-6-3-7-61"
       width="4.0433636"
       height="2.8920581"
       x="40.134525"
       y="52.85976" />
    <rect
       style="fill:none;stroke:#777777;stroke-width:0.5;stroke-dasharray:none;stroke-opacity:1"
       id="rect788-6-5-0-8"
       width="4.0433636"
       height="2.8920581"
       x="40.134525"
       y="57.161865" />
    <rect
       style="fill:none;stroke:#777777;stroke-width:0.5;stroke-dasharray:none;stroke-opacity:1"
       id="rect788-6-6-9-7"
       width="4.0433636"
       height="2.8920581"
       x="40.134525"
       y="61.463966" />
    <rect
       style="fill:none;stroke:#777777;stroke-width:0.5;stroke-dasharray:none;stroke-opacity:1"
       id="rect788-6-2-3-9"
       width="4.0433636"
       height="2.8920581"
       x="40.134525"
       y="65.766068" />
    <rect
       style="fill:none;stroke:#777777;stroke-width:0.5;stroke-dasharray:none;stroke-opacity:1"
       id="rect788-6-3-7-2"
       width="4.0433636"
       height="2.8920581"
       x="34.842854"
       y="52.85976" />
    <rect
       style="fill:none;stroke:#777777;stroke-width:0.5;stroke-dasharray:none;stroke-opacity:1"
       id="rect788-6-5-0-02"
       width="4.0433636"
       height="2.8920581"
       x="34.842854"
       y="57.161865" />
    <rect
       style="fill:none;stroke:#777777;stroke-width:0.5;stroke-dasharray:none;stroke-opacity:1"
       id="rect788-6-6-9-3"
       width="4.0433636"
       height="2.8920581"
       x="34.842854"
       y="61.463966" />
    <rect
       style="fill:none;stroke:#777777;stroke-width:0.5;stroke-dasharray:none;stroke-opacity:1"
       id="rect788-6-2-3-7"
       width="4.0433636"
       height="2.8920581"
       x="34.842854"
       y="65.766068" />
    <path
       style="fill:none;stroke:#777777;stroke-width:0.323894;stroke-dasharray:none;stroke-opacity:1"
       d="m 110.97759,62.245789 3.69612,-1.306736 0.72882,1.359006 2.91525,-0.104539 1.97821,-0.522695 1.19734,1.202196 1.30145,-4.861054 0.052,7.160909 0.76786,-0.744839 0.74183,-0.01307 0.5466,0.261347 0.23427,-0.810175 0.2733,0.248279 0.39044,0.418156"
       id="path1552"
       sodipodi:nodetypes="cccccccccccccc" />
    <path
       style="fill:none;stroke:#777777;stroke-width:0.323894;stroke-dasharray:none;stroke-opacity:1"
       d="m 87.873929,57.196713 3.69612,-1.306736 0.72882,1.359006 2.91525,-0.104539 1.97821,-0.522695 1.19734,1.202196 1.30145,-4.861054 0.052,7.160909 0.767861,-0.744839 0.74183,-0.01307 0.5466,0.261347 0.23427,-0.810175 0.2733,0.248279 0.39044,0.418156"
       id="path1552-5"
       sodipodi:nodetypes="cccccccccccccc" />
    <path
       style="fill:none;stroke:#777777;stroke-width:0.323894;stroke-dasharray:none;stroke-opacity:1"
       d="m 102.96978,64.708456 -3.696121,1.306736 -0.72882,-1.359006 -2.91525,0.104539 -1.978198,0.522695 -1.197334,-1.202196 -1.301444,4.861054 -0.052,-7.160909 -0.767857,0.744839 -0.74183,0.01307 -0.5466,-0.261347 -0.23427,0.810175 -0.2733,-0.248279 -0.39044,-0.418156"
       id="path1552-9"
       sodipodi:nodetypes="cccccccccccccc" />
    <path
       style="fill:none;stroke:#777777;stroke-width:0.220083;stroke-dasharray:none;stroke-opacity:1"
       d="m 62.662679,54.792638 3.717813,-0.59981 0.733097,0.623802 2.93236,-0.04798 1.98982,-0.239924 1.204368,0.551825 1.309088,-2.231291 0.0523,3.286956 0.772367,-0.341892 0.746184,-0.006 0.549808,0.119962 0.235645,-0.371881 0.274904,0.113963 0.392731,0.191939"
       id="path1552-2"
       sodipodi:nodetypes="cccccccccccccc" />
    <path
       style="fill:none;stroke:#777777;stroke-width:0.220083;stroke-dasharray:none;stroke-opacity:1"
       d="m 77.756008,58.697598 -3.717813,0.59981 -0.733097,-0.623802 -2.93236,0.04798 -1.98982,0.239924 -1.204368,-0.551825 -1.309088,2.231291 -0.0523,-3.286956 -0.772367,0.341892 -0.746184,0.006 -0.549808,-0.119962 -0.235645,0.371881 -0.274904,-0.113963 -0.392731,-0.191939"
       id="path1552-2-2"
       sodipodi:nodetypes="cccccccccccccc" />
    <path
       style="fill:none;stroke:#777777;stroke-width:0.220083;stroke-dasharray:none;stroke-opacity:1"
       d="m 62.285564,62.930934 3.717813,0.59981 0.733097,-0.623802 2.93236,0.04798 1.98982,0.239924 1.204368,-0.551825 1.309088,2.231291 0.0523,-3.286956 0.772367,0.341892 0.746184,0.006 0.549808,-0.119962 0.235645,0.371881 0.274904,-0.113963 0.392731,-0.191939"
       id="path1552-2-8"
       sodipodi:nodetypes="cccccccccccccc" />
    <path
       style="fill:none;stroke:#777777;stroke-width:0.220083;stroke-dasharray:none;stroke-opacity:1"
       d="m 77.226841,67.990545 -3.717813,-0.59981 -0.733097,0.623802 -2.93236,-0.04798 -1.98982,-0.239924 -1.204368,0.551825 -1.309088,-2.231291 -0.0523,3.286956 -0.772367,-0.341892 -0.746184,-0.006 -0.549808,0.119962 -0.235645,-0.371881 -0.274904,0.113963 -0.392731,0.191939"
       id="path1552-2-9"
       sodipodi:nodetypes="cccccccccccccc" />
    <path
       style="fill:none;stroke:#777777;stroke-width:0.0942512;stroke-dasharray:none;stroke-opacity:1"
       d="m 35.538849,54.81716 0.678628,-0.602658 0.133815,0.626764 0.535256,-0.04821 0.36321,-0.241063 0.219838,0.554445 0.238953,-2.241884 0.0095,3.30256 0.140984,-0.343515 0.136204,-0.006 0.100358,0.120531 0.04301,-0.373646 0.05018,0.114504 0.07169,0.19285"
       id="path1552-2-7"
       sodipodi:nodetypes="cccccccccccccc" />
    <path
       style="fill:none;stroke:#777777;stroke-width:0.0942512;stroke-dasharray:none;stroke-opacity:1"
       d="m 38.293896,58.740659 -0.678627,0.602657 -0.133816,-0.626763 -0.535255,0.04821 -0.36321,0.241064 -0.219838,-0.554445 -0.238953,2.241884 -0.0095,-3.302561 -0.140983,0.343515 -0.136204,0.006 -0.100359,-0.120532 -0.04301,0.373647 -0.05018,-0.114504 -0.07169,-0.192851"
       id="path1552-2-2-3"
       sodipodi:nodetypes="cccccccccccccc" />
    <path
       style="fill:none;stroke:#777777;stroke-width:0.0942512;stroke-dasharray:none;stroke-opacity:1"
       d="m 35.470013,62.994092 0.678628,0.602658 0.133815,-0.626763 0.535255,0.04821 0.36321,0.241063 0.219838,-0.554444 0.238954,2.241884 0.0095,-3.302561 0.140983,0.343515 0.136204,0.006 0.100359,-0.120531 0.04301,0.373646 0.05018,-0.114504 0.07169,-0.19285"
       id="path1552-2-8-6"
       sodipodi:nodetypes="cccccccccccccc" />
    <path
       style="fill:none;stroke:#777777;stroke-width:0.0942512;stroke-dasharray:none;stroke-opacity:1"
       d="m 38.197305,68.077724 -0.678627,-0.602658 -0.133816,0.626764 -0.535255,-0.04821 -0.36321,-0.241063 -0.219838,0.554445 -0.238953,-2.241884 -0.0095,3.302561 -0.140983,-0.343515 -0.136204,-0.006 -0.100359,0.120532 -0.04301,-0.373647 -0.05018,0.114504 -0.07169,0.19285"
       id="path1552-2-9-1"
       sodipodi:nodetypes="cccccccccccccc" />
    <path
       style="fill:none;stroke:#777777;stroke-width:0.0942512;stroke-dasharray:none;stroke-opacity:1"
       d="m 40.823534,54.102369 0.678628,-0.602658 0.133815,0.626764 0.535256,-0.04821 0.36321,-0.241063 0.219838,0.554445 0.238953,-2.241884 0.0095,3.30256 0.140984,-0.343515 0.136204,-0.006 0.100358,0.120531 0.04301,-0.373646 0.05018,0.114504 0.07169,0.19285"
       id="path1552-2-7-2"
       sodipodi:nodetypes="cccccccccccccc" />
    <path
       style="fill:none;stroke:#777777;stroke-width:0.0942512;stroke-dasharray:none;stroke-opacity:1"
       d="m 43.578581,58.025868 -0.678627,0.602657 -0.133816,-0.626763 -0.535255,0.04821 -0.36321,0.241064 -0.219838,-0.554445 -0.238953,2.241884 -0.0095,-3.302561 -0.140983,0.343515 -0.136204,0.006 -0.100359,-0.120532 -0.04301,0.373647 -0.05018,-0.114504 -0.07169,-0.192851"
       id="path1552-2-2-3-9"
       sodipodi:nodetypes="cccccccccccccc" />
    <path
       style="fill:none;stroke:#777777;stroke-width:0.0942512;stroke-dasharray:none;stroke-opacity:1"
       d="m 40.754698,62.279301 0.678628,0.602658 0.133815,-0.626763 0.535255,0.04821 0.36321,0.241063 0.219838,-0.554444 0.238954,2.241884 0.0095,-3.302561 0.140983,0.343515 0.136204,0.006 0.100359,-0.120531 0.04301,0.373646 0.05018,-0.114504 0.07169,-0.19285"
       id="path1552-2-8-6-3"
       sodipodi:nodetypes="cccccccccccccc" />
    <path
       style="fill:none;stroke:#777777;stroke-width:0.0942512;stroke-dasharray:none;stroke-opacity:1"
       d="m 43.48199,67.362933 -0.678627,-0.602658 -0.133816,0.626764 -0.535255,-0.04821 -0.36321,-0.241063 -0.219838,0.554445 -0.238953,-2.241884 -0.0095,3.302561 -0.140983,-0.343515 -0.136204,-0.006 -0.100359,0.120532 -0.04301,-0.373647 -0.05018,0.114504 -0.07169,0.19285"
       id="path1552-2-9-1-1"
       sodipodi:nodetypes="cccccccccccccc" />
    <path
       style="fill:none;stroke:#777777;stroke-width:0.0942512;stroke-dasharray:none;stroke-opacity:1"
       d="m 46.115204,54.102369 0.678628,-0.602658 0.133815,0.626764 0.535256,-0.04821 0.36321,-0.241063 0.219838,0.554445 0.238953,-2.241884 0.0095,3.30256 0.140984,-0.343515 0.136204,-0.006 0.100358,0.120531 0.04301,-0.373646 0.05018,0.114504 0.07169,0.19285"
       id="path1552-2-7-9"
       sodipodi:nodetypes="cccccccccccccc" />
    <path
       style="fill:none;stroke:#777777;stroke-width:0.0942512;stroke-dasharray:none;stroke-opacity:1"
       d="m 48.870251,58.025868 -0.678627,0.602657 -0.133816,-0.626763 -0.535255,0.04821 -0.36321,0.241064 -0.219838,-0.554445 -0.238953,2.241884 -0.0095,-3.302561 -0.140983,0.343515 -0.136204,0.006 -0.100359,-0.120532 -0.04301,0.373647 -0.05018,-0.114504 -0.07169,-0.192851"
       id="path1552-2-2-3-4"
       sodipodi:nodetypes="cccccccccccccc" />
    <path
       style="fill:none;stroke:#777777;stroke-width:0.0942512;stroke-dasharray:none;stroke-opacity:1"
       d="m 46.046368,62.279301 0.678628,0.602658 0.133815,-0.626763 0.535255,0.04821 0.36321,0.241063 0.219838,-0.554444 0.238954,2.241884 0.0095,-3.302561 0.140983,0.343515 0.136204,0.006 0.100359,-0.120531 0.04301,0.373646 0.05018,-0.114504 0.07169,-0.19285"
       id="path1552-2-8-6-7"
       sodipodi:nodetypes="cccccccccccccc" />
    <path
       style="fill:none;stroke:#777777;stroke-width:0.0942512;stroke-dasharray:none;stroke-opacity:1"
       d="m 48.77366,67.362933 -0.678627,-0.602658 -0.133816,0.626764 -0.535255,-0.04821 -0.36321,-0.241063 -0.219838,0.554445 -0.238953,-2.241884 -0.0095,3.302561 -0.140983,-0.343515 -0.136204,-0.006 -0.100359,0.120532 -0.04301,-0.373647 -0.05018,0.114504 -0.07169,0.19285"
       id="path1552-2-9-1-8"
       sodipodi:nodetypes="cccccccccccccc" />
    <path
       style="fill:none;stroke:#777777;stroke-width:0.0942512;stroke-dasharray:none;stroke-opacity:1"
       d="m 51.406874,54.631536 0.678628,-0.602658 0.133815,0.626764 0.535256,-0.04821 0.36321,-0.241063 0.219838,0.554445 0.238953,-2.241884 0.0095,3.30256 0.140984,-0.343515 0.136204,-0.006 0.100358,0.120531 0.04301,-0.373646 0.05018,0.114504 0.07169,0.19285"
       id="path1552-2-7-4"
       sodipodi:nodetypes="cccccccccccccc" />
    <path
       style="fill:none;stroke:#777777;stroke-width:0.0942512;stroke-dasharray:none;stroke-opacity:1"
       d="m 54.161921,58.555035 -0.678627,0.602657 -0.133816,-0.626763 -0.535255,0.04821 -0.36321,0.241064 -0.219838,-0.554445 -0.238953,2.241884 -0.0095,-3.302561 -0.140983,0.343515 -0.136204,0.006 -0.100359,-0.120532 -0.04301,0.373647 -0.05018,-0.114504 -0.07169,-0.192851"
       id="path1552-2-2-3-5"
       sodipodi:nodetypes="cccccccccccccc" />
    <path
       style="fill:none;stroke:#777777;stroke-width:0.0942512;stroke-dasharray:none;stroke-opacity:1"
       d="m 51.338038,62.808468 0.678628,0.602658 0.133815,-0.626763 0.535255,0.04821 0.36321,0.241063 0.219838,-0.554444 0.238954,2.241884 0.0095,-3.302561 0.140983,0.343515 0.136204,0.006 0.100359,-0.120531 0.04301,0.373646 0.05018,-0.114504 0.07169,-0.19285"
       id="path1552-2-8-6-0"
       sodipodi:nodetypes="cccccccccccccc" />
    <path
       style="fill:none;stroke:#777777;stroke-width:0.0942512;stroke-dasharray:none;stroke-opacity:1"
       d="m 54.06533,67.8921 -0.678627,-0.602658 -0.133816,0.626764 -0.535255,-0.04821 -0.36321,-0.241063 -0.219838,0.554445 -0.238953,-2.241884 -0.0095,3.302561 -0.140983,-0.343515 -0.136204,-0.006 -0.100359,0.120532 -0.04301,-0.373647 -0.05018,0.114504 -0.07169,0.19285"
       id="path1552-2-9-1-3"
       sodipodi:nodetypes="cccccccccccccc" />
  </g>
</svg>
