<?xml version="1.0" encoding="UTF-8" standalone="no"?>
<!-- Created with Inkscape (http://www.inkscape.org/) -->

<svg
   width="17.273205mm"
   height="17.047089mm"
   viewBox="0 0 17.273205 17.047089"
   version="1.1"
   id="svg5"
   inkscape:version="1.2.2 (b0a8486541, 2022-12-01)"
   sodipodi:docname="drawing.svg"
   inkscape:export-filename="graph-1x1.png"
   inkscape:export-xdpi="8.5521889"
   inkscape:export-ydpi="8.5521889"
   xmlns:inkscape="http://www.inkscape.org/namespaces/inkscape"
   xmlns:sodipodi="http://sodipodi.sourceforge.net/DTD/sodipodi-0.dtd"
   xmlns="http://www.w3.org/2000/svg"
   xmlns:svg="http://www.w3.org/2000/svg">
  <sodipodi:namedview
     id="namedview7"
     pagecolor="#ffffff"
     bordercolor="#000000"
     borderopacity="0.25"
     inkscape:showpageshadow="2"
     inkscape:pageopacity="0.0"
     inkscape:pagecheckerboard="0"
     inkscape:deskcolor="#d1d1d1"
     inkscape:document-units="mm"
     showgrid="false"
     inkscape:zoom="2.3233446"
     inkscape:cx="303.01145"
     inkscape:cy="270.7304"
     inkscape:window-width="1600"
     inkscape:window-height="831"
     inkscape:window-x="0"
     inkscape:window-y="0"
     inkscape:window-maximized="1"
     inkscape:current-layer="layer1" />
  <defs
     id="defs2" />
  <g
     inkscape:label="Layer 1"
     inkscape:groupmode="layer"
     id="layer1"
     transform="translate(-60.868497,-52.454909)">
    <rect
       style="fill:none;stroke:#777777;stroke-width:0.5;stroke-dasharray:none;stroke-opacity:1"
       id="rect788-6-3"
       width="16.773201"
       height="2.8458309"
       x="61.1185"
       y="53.115913"
       inkscape:export-filename="./graph-nx1.png"
       inkscape:export-xdpi="159.88217"
       inkscape:export-ydpi="159.88217" />
    <rect
       style="fill:none;stroke:#777777;stroke-width:0.5;stroke-dasharray:none;stroke-opacity:1"
       id="rect788-6-5"
       width="16.773201"
       height="2.8458309"
       x="61.1185"
       y="57.349251" />
    <rect
       style="fill:none;stroke:#777777;stroke-width:0.5;stroke-dasharray:none;stroke-opacity:1"
       id="rect788-6-6"
       width="16.773201"
       height="2.8458309"
       x="61.1185"
       y="61.582588" />
    <rect
       style="fill:none;stroke:#777777;stroke-width:0.5;stroke-dasharray:none;stroke-opacity:1"
       id="rect788-6-2"
       width="16.773201"
       height="2.8458309"
       x="61.1185"
       y="65.815926" />
    <path
       style="fill:none;stroke:#777777;stroke-width:0.220083;stroke-dasharray:none;stroke-opacity:1"
       d="m 62.662679,54.792638 3.717813,-0.59981 0.733097,0.623802 2.93236,-0.04798 1.98982,-0.239924 1.204368,0.551825 1.309088,-2.231291 0.0523,3.286956 0.772367,-0.341892 0.746184,-0.006 0.549808,0.119962 0.235645,-0.371881 0.274904,0.113963 0.392731,0.191939"
       id="path1552-2"
       sodipodi:nodetypes="cccccccccccccc" />
    <path
       style="fill:none;stroke:#777777;stroke-width:0.220083;stroke-dasharray:none;stroke-opacity:1"
       d="m 77.756008,58.697598 -3.717813,0.59981 -0.733097,-0.623802 -2.93236,0.04798 -1.98982,0.239924 -1.204368,-0.551825 -1.309088,2.231291 -0.0523,-3.286956 -0.772367,0.341892 -0.746184,0.006 -0.549808,-0.119962 -0.235645,0.371881 -0.274904,-0.113963 -0.392731,-0.191939"
       id="path1552-2-2"
       sodipodi:nodetypes="cccccccccccccc" />
    <path
       style="fill:none;stroke:#777777;stroke-width:0.220083;stroke-dasharray:none;stroke-opacity:1"
       d="m 62.285564,62.930934 3.717813,0.59981 0.733097,-0.623802 2.93236,0.04798 1.98982,0.239924 1.204368,-0.551825 1.309088,2.231291 0.0523,-3.286956 0.772367,0.341892 0.746184,0.006 0.549808,-0.119962 0.235645,0.371881 0.274904,-0.113963 0.392731,-0.191939"
       id="path1552-2-8"
       sodipodi:nodetypes="cccccccccccccc" />
    <path
       style="fill:none;stroke:#777777;stroke-width:0.220083;stroke-dasharray:none;stroke-opacity:1"
       d="m 77.226841,67.990545 -3.717813,-0.59981 -0.733097,0.623802 -2.93236,-0.04798 -1.98982,-0.239924 -1.204368,0.551825 -1.309088,-2.231291 -0.0523,3.286956 -0.772367,-0.341892 -0.746184,-0.006 -0.549808,0.119962 -0.235645,-0.371881 -0.274904,0.113963 -0.392731,0.191939"
       id="path1552-2-9"
       sodipodi:nodetypes="cccccccccccccc" />
  </g>
</svg>
